<svg xmlns="http://www.w3.org/2000/svg" viewBox="0 0 64 64" width="64" height="64">
  <rect width="64" height="64" rx="13" fill="#1a2238"/>
  <!-- Open book -->
  <g stroke="#c9a24b" stroke-width="2.4" stroke-linejoin="round" stroke-linecap="round" fill="none">
    <!-- Left page -->
    <path d="M32 18 C26 14, 18 14, 13 16 L13 46 C18 44, 26 44, 32 48 Z" fill="#f5efe1"/>
    <!-- Right page -->
    <path d="M32 18 C38 14, 46 14, 51 16 L51 46 C46 44, 38 44, 32 48 Z" fill="#f5efe1"/>
    <!-- Spine -->
    <line x1="32" y1="18" x2="32" y2="48"/>
    <!-- Text lines -->
    <line x1="18" y1="23" x2="28" y2="24.5" stroke-width="1.7"/>
    <line x1="18" y1="29" x2="28" y2="30.5" stroke-width="1.7"/>
    <line x1="18" y1="35" x2="28" y2="36.5" stroke-width="1.7"/>
    <line x1="36" y1="24.5" x2="46" y2="23" stroke-width="1.7"/>
    <line x1="36" y1="30.5" x2="46" y2="29" stroke-width="1.7"/>
    <line x1="36" y1="36.5" x2="46" y2="35" stroke-width="1.7"/>
  </g>
</svg>
